<?xml version="1.0" encoding="utf-8"?>
<!-- Generator: Adobe Illustrator 18.1.1, SVG Export Plug-In . SVG Version: 6.00 Build 0)  -->
<svg version="1.1" id="Layer_1" xmlns="http://www.w3.org/2000/svg" xmlns:xlink="http://www.w3.org/1999/xlink" x="0px" y="0px"
	 viewBox="0 0 512 512" enable-background="new 0 0 512 512" xml:space="preserve">
<g>
	<path d="M54.22,32H33.78A1.78,1.78,0,0,0,32,33.78v4.44A1.78,1.78,0,0,0,33.78,40H46.22A1.78,1.78,0,0,1,48,41.78h0v.89A5.33,5.33,0,0,1,42.67,48H25.78A1.78,1.78,0,0,1,24,46.22V29.33A5.33,5.33,0,0,1,29.33,24H54.22A1.78,1.78,0,0,0,56,22.22V17.78A1.78,1.78,0,0,0,54.22,16H29.33A13.33,13.33,0,0,0,16,29.33V54.22A1.78,1.78,0,0,0,17.78,56H44A12,12,0,0,0,56,44V33.78A1.78,1.78,0,0,0,54.22,32ZM36,72A36,36,0,1,1,72,36,36,36,0,0,1,36,72Z"/>
	<path d="M-840.77,187.72h-234.69a20.41,20.41,0,0,0-20.41,20.4l0,51a20.41,20.41,0,0,0,20.4,20.41h142.89A20.41,20.41,0,0,1-912.2,300h0v10.2a61.22,61.22,0,0,1-61.22,61.22h-193.89A20.41,20.41,0,0,1-1187.72,351V157.11a61.23,61.23,0,0,1,61.22-61.23h285.68a20.41,20.41,0,0,0,20.41-20.4l.06-51A20.41,20.41,0,0,0-840.76,4h-285.73a153.06,153.06,0,0,0-153.06,153.06v285.7a20.41,20.41,0,0,0,20.41,20.41h301A137.75,137.75,0,0,0-820.36,325.47V208.12A20.41,20.41,0,0,0-840.77,187.72ZM-1050,646.9c-228.24,0-413.27-185-413.27-413.27s185-413.27,413.27-413.27,413.27,185,413.27,413.27S-821.71,646.9-1050,646.9Z"/>
</g>
</svg>
